<!-- Generated by IcoMoon.io -->
<svg version="1.1" xmlns="http://www.w3.org/2000/svg" width="384" height="448" viewBox="0 0 384 448">
<title></title>
<g id="icomoon-ignore">
</g>
<path fill="#000" d="M192 31.947c106.029 0 192.053 86.023 192.053 192.053 0 84.773-55.015 156.793-131.287 182.3-9.753 1.75-13.255-4.251-13.255-9.253 0-6.252 0.249-27.008 0.249-52.765 0-18.004-6.002-29.509-13.003-35.51 42.762-4.752 87.774-21.006 87.774-94.776 0-21.006-7.501-38.011-19.756-51.515 2.001-5.002 8.502-24.507-2.001-51.014-16.005-5.002-52.765 19.756-52.765 19.756-15.254-4.251-31.759-6.502-48.013-6.502s-32.759 2.251-48.013 6.502c0 0-36.76-24.756-52.765-19.756-10.504 26.507-4.001 46.014-2.001 51.014-12.254 13.504-19.756 30.508-19.756 51.515 0 73.521 44.763 90.025 87.524 94.776-5.501 5.002-10.504 13.504-12.254 25.757-11.003 5.002-39.011 13.504-55.766-16.005-10.504-18.254-29.509-19.756-29.509-19.756-18.756-0.249-1.25 11.754-1.25 11.754 12.503 5.751 21.257 28.008 21.257 28.008 11.252 34.259 64.768 22.758 64.768 22.758 0 16.005 0.249 31.009 0.249 35.76 0 5.002-3.501 11.003-13.255 9.253-76.272-25.508-131.287-97.527-131.287-182.3 0-106.029 86.023-192.053 192.053-192.053zM72.716 307.773c0.5-1.001-0.249-2.251-1.75-3-1.501-0.5-2.751-0.249-3.251 0.5-0.5 1.001 0.249 2.251 1.75 3 1.25 0.75 2.751 0.5 3.251-0.5zM80.469 316.275c1.001-0.75 0.75-2.501-0.5-4.001-1.25-1.25-3-1.75-4.001-0.75-1.001 0.75-0.75 2.501 0.5 4.001 1.25 1.25 3 1.75 4.001 0.75zM87.971 327.529c1.25-1.001 1.25-3 0-4.752-1.001-1.75-3-2.501-4.251-1.501-1.25 0.75-1.25 2.751 0 4.501s3.251 2.501 4.251 1.75zM98.474 338.031c1.001-1.001 0.5-3.251-1.001-4.752-1.75-1.75-4.001-2.001-5.002-0.75-1.25 1.001-0.75 3.251 1.001 4.752 1.75 1.75 4.001 2.001 5.002 0.75zM112.728 344.283c0.5-1.501-1.001-3.251-3.251-4.001-2.001-0.5-4.251 0.249-4.752 1.75s1.001 3.251 3.251 3.752c2.001 0.75 4.251 0 4.752-1.501zM128.482 345.534c0-1.75-2.001-3-4.251-2.751-2.251 0-4.001 1.25-4.001 2.751 0 1.75 1.75 3 4.251 2.751 2.251 0 4.001-1.25 4.001-2.751zM142.985 343.033c-0.249-1.501-2.251-2.501-4.501-2.251-2.251 0.5-3.752 2.001-3.501 3.752 0.249 1.501 2.251 2.501 4.501 2.001s3.752-2.001 3.501-3.501z"></path>
</svg>
